<svg height="128px" viewBox="0 0 128 128" width="128px" xmlns="http://www.w3.org/2000/svg" xmlns:xlink="http://www.w3.org/1999/xlink"><linearGradient id="a" gradientUnits="userSpaceOnUse" x1="0" x2="0" y1="70" y2="83" ><stop stop-color="#9a9996"/><stop offset="0.5" stop-color="#c0bfbc"/><stop offset="1" stop-color="#deddda"/></linearGradient><defs><g id="h"><ellipse cx="64" cy="77.15" rx="11" ry="8.25"/><ellipse cx="64" cy="77.15" rx="9" ry="6.75" fill="url(#a)"/><ellipse cx="64" cy="77.15" rx="7" ry="5.25" fill="#3d3846"/></g></defs><linearGradient id="b" gradientUnits="userSpaceOnUse" x1="7.395" x2="120.603" y1="82.867" y2="82.867"><stop stop-color="#5e5c64"/><stop offset="0.038" stop-color="#77767b"/><stop offset="0.076" stop-color="#5e5c64"/><stop offset="0.923" stop-color="#5e5c64"/><stop offset="0.961" stop-color="#77767b"/><stop offset="1" stop-color="#5e5c64"/></linearGradient><linearGradient id="c" gradientUnits="userSpaceOnUse" x1="18" x2="34"><stop stop-color="#c0bfbc"/><stop offset="0.5" stop-color="#9a9996"/><stop offset="1" stop-color="#c0bfbc"/></linearGradient><rect x="7.4" y="75.15" width="113.2" height="36" rx="9.3" ry="9.3" fill="url(#b)"/><rect x="7.4" y="35.74" width="113.2" height="56.53" rx="9.3" ry="9.3" fill="#77767b"/><g id="p"><path d="M 64,58 V 69" stroke="#999" stroke-width="1.5"/><use xlink:href="#h" fill="#e01b24"/><use xlink:href="#h" y="-25.5" fill="#1c71d8"/></g><use xlink:href="#p" x="37.75"/><use xlink:href="#p" x="-37.75"/><g fill="url(#c)"><rect x="18.007" y="30.6" width="16.51" height="21.4"/><ellipse cx="26.27" cy="51.71" rx="8.25" ry="6.1"/></g><ellipse cx="26.27" cy="31" rx="8.25" ry="6.1" fill="#c0bfbc"/><ellipse cx="26.25" cy="30.8" rx="4.7" ry="3.6" fill="#1a5fb4"/><path d="m 26.261 30.980 c 0 -7.074 0.628 -18.371 -10.285157 -21.847 c -11.828 -3.765624 -33.882 3 -33.882 3" fill="none" stroke="#1a5fb4" stroke-width="9.434"/></svg>
