<svg height="128px" viewBox="0 0 128 128" width="128px" xmlns="http://www.w3.org/2000/svg">
	<linearGradient id="a" gradientUnits="userSpaceOnUse" x1="0" x2="0" y1="70" y2="83" >
		<stop offset="0" stop-color="#9a9996"/>
		<stop offset="0.5" stop-color="#c0bfbc"/>
		<stop offset="1" stop-color="#deddda"/>
	</linearGradient>
	<defs>
		<g id="z">
			<ellipse cx="64" cy="77" rx="11" ry="8.3"/>
			<ellipse cx="64" cy="77" rx="9" ry="6.8" fill="url(#a)"/>
			<ellipse cx="64" cy="77" rx="7" ry="5.3" fill="#3d3846"/>			
		</g>
	</defs>
	<linearGradient id="b" gradientUnits="userSpaceOnUse" x1="7.395" x2="120.603" y1="82.867" y2="82.867">
		<stop offset="0" stop-color="#5e5c64"/>
		<stop offset="0.0384615" stop-color="#77767b"/>
		<stop offset="0.0768555" stop-color="#5e5c64"/>
		<stop offset="0.923077" stop-color="#5e5c64"/>
		<stop offset="0.961538" stop-color="#77767b"/>
		<stop offset="1" stop-color="#5e5c64"/>
  	</linearGradient>
	<linearGradient id="c" gradientUnits="userSpaceOnUse" x1="18" x2="34" y1="40" y2="40">
		<stop offset="0" stop-color="#c0bfbc"/>
		<stop offset="0.5" stop-color="#9a9996"/>
		<stop offset="1" stop-color="#c0bfbc"/>
	</linearGradient>
	<path d="m 120.601562 82.867188 v 18.867187 c 0 5.226563 -4.207031 9.433594 -9.433593 9.433594 h -94.339844 c -5.226563 0 -9.433594 -4.207031 -9.433594 -9.433594 v -18.867187 z m 0 0" fill="url(#b)" />
	<path d="m 16.828125 35.699219 c -5.226563 0 -9.433594 4.207031 -9.433594 9.433593 v 37.734376 c 0 5.226562 4.207031 9.433593 9.433594 9.433593 h 94.339844 c 5.226562 0 9.4375 -4.207031 9.4375 -9.433593 v -37.734376 c 0 -5.226562 -4.210938 -9.433593 -9.4375 -9.433593 h -76.648438 v 2.355469 h -16.511719 v -2.355469 z m 0 0" fill="#77767b"/>
	<g id="p">
		<path d="M 64,58.691406 V 69.304688" stroke="#999" stroke-width="1.5"/>
		<use href="#z" fill="#e01b24"/>
		<use href="#z" y="-25.5" fill="#1c71d8"/>
	</g>
	<use href="#p" x="37.75"/>
	<use href="#p" x="-37.75"/>
	<path d="m 18.007812 30.980469 v 20.636719 c 0.003907 3.417968 3.699219 6.191406 8.253907 6.191406 c 4.554687 0 8.25 -2.765625 8.253906 -6.183594 c 0 0 0 -0.003906 0 -0.007812 v -20.636719 c -1.308594 2.597656 -4.589844 6.132812 -8.253906 6.132812 c -3.660157 0 -6.941407 -3.535156 -8.253907 -6.132812 z m 0 0" fill="url(#c)"/>
	<ellipse  cx="26.25" cy="31" rx="8.2" ry="6.1" fill="#c0bfbc"/>
	<ellipse  cx="26.25" cy="30.8" rx="4.7" ry="3.6" fill="#1a5fb4"/>
	<path d="m 26.261719 30.980469 c 0 -7.074219 0.628906 -18.371094 -10.285157 -21.847657 c -11.828124 -3.765624 -33.882812 3 -33.882812 3" fill="none" stroke="#1a5fb4" stroke-width="9.434"/>
</svg>
